<?xml version="1.0" standalone="no"?>
<!DOCTYPE svg PUBLIC "-//W3C//DTD SVG 20010904//EN"
 "http://www.w3.org/TR/2001/REC-SVG-20010904/DTD/svg10.dtd">
<svg version="1.0" xmlns="http://www.w3.org/2000/svg"
 width="1500.000000pt" height="1500.000000pt" viewBox="0 0 1500.000000 1500.000000"
 preserveAspectRatio="xMidYMid meet">
<metadata>
Created by potrace 1.14, written by Peter Selinger 2001-2017
</metadata>
<g transform="translate(0.000000,1500.000000) scale(0.100000,-0.100000)"
fill="#000000" stroke="none">
<path d="M7380 14231 c-110 -35 -190 -104 -242 -211 -29 -59 -32 -74 -33 -160
0 -78 4 -106 25 -157 13 -35 28 -63 32 -63 5 0 8 -5 8 -11 0 -22 99 -107 152
-132 154 -73 326 -45 444 70 60 58 74 81 103 157 62 167 -3 352 -163 466 -75
53 -226 72 -326 41z"/>
<path d="M9400 13939 c-87 -15 -170 -59 -231 -123 -113 -120 -138 -302 -62
-452 15 -30 31 -54 35 -54 4 0 8 -5 8 -10 0 -25 141 -124 192 -136 10 -2 28
-6 41 -9 29 -7 115 -7 148 0 136 27 250 123 300 252 34 89 30 207 -9 294 -57
126 -184 225 -302 234 -19 2 -42 5 -50 8 -8 2 -40 1 -70 -4z"/>
<path d="M5420 13921 c-76 -24 -111 -44 -157 -88 -166 -159 -169 -415 -7 -571
84 -80 177 -117 289 -114 214 7 375 170 381 387 7 269 -254 468 -506 386z"/>
<path d="M3680 13025 c-183 -38 -307 -192 -313 -386 -1 -33 0 -59 3 -59 3 0 6
-11 6 -25 3 -45 60 -149 108 -197 52 -50 126 -91 194 -106 53 -12 171 -9 198
6 10 5 21 9 24 9 3 -1 30 12 60 29 57 33 123 97 152 149 15 29 51 140 51 160
0 53 -18 148 -36 189 -25 60 -28 64 -89 127 -94 96 -222 133 -358 104z"/>
<path d="M11133 13030 c-90 -20 -201 -102 -239 -178 -11 -21 -22 -39 -26 -42
-16 -12 -35 -118 -33 -184 4 -117 67 -238 155 -297 19 -13 37 -27 40 -30 3 -4
34 -17 70 -29 152 -51 301 -13 417 107 35 36 63 73 63 84 0 10 5 19 12 19 6 0
8 3 5 6 -3 4 -2 15 4 26 6 11 13 32 16 46 40 216 -84 415 -294 471 -45 12
-136 12 -190 1z"/>
<path d="M12560 11632 c-40 -6 -162 -69 -198 -102 -70 -64 -124 -186 -125
-280 0 -54 16 -127 40 -180 44 -95 167 -195 265 -216 93 -19 196 -6 280 37 49
25 138 106 138 125 0 8 4 14 9 14 11 0 49 93 56 139 11 63 9 101 -10 191 0 3
-14 30 -29 61 -64 129 -188 209 -331 213 -38 1 -81 0 -95 -2z"/>
<path d="M2236 11609 c-281 -97 -365 -451 -156 -655 71 -70 154 -106 275 -118
16 -1 103 14 150 27 19 6 79 40 92 53 7 7 23 21 35 31 27 21 57 64 82 112 76
145 41 351 -78 459 -34 31 -136 96 -136 87 0 -2 -19 2 -41 10 -58 21 -153 18
-223 -6z"/>
<path d="M7435 11593 c-33 -19 -94 -53 -135 -75 -41 -23 -130 -72 -197 -110
-68 -37 -127 -68 -133 -68 -5 0 -10 -4 -10 -10 0 -5 -4 -10 -9 -10 -8 0 -120
-60 -216 -115 -22 -13 -44 -23 -49 -23 -5 0 -12 -4 -15 -9 -3 -5 -31 -22 -61
-38 -31 -17 -117 -64 -191 -105 l-136 -75 0 -678 c0 -614 1 -679 16 -685 9 -3
66 -33 126 -67 61 -34 137 -77 170 -95 33 -18 80 -44 105 -58 25 -14 97 -54
160 -89 63 -34 122 -67 130 -72 8 -6 35 -21 60 -34 25 -12 68 -36 95 -51 28
-16 119 -67 203 -113 l152 -85 68 38 c37 21 83 46 102 57 19 11 69 38 110 60
41 22 80 43 85 47 6 4 35 21 65 37 30 17 161 89 290 161 129 71 253 140 275
152 22 12 54 29 70 39 17 10 57 32 91 50 l61 33 -2 672 c-1 369 -2 674 -3 678
-2 6 -215 127 -362 204 -19 11 -37 21 -40 24 -3 3 -27 17 -55 31 -108 57 -120
64 -123 72 -2 4 -8 7 -13 7 -5 0 -66 32 -137 72 -70 39 -145 81 -167 93 -22
12 -69 38 -105 57 -36 20 -81 44 -100 54 -19 11 -37 21 -40 24 -7 7 -67 40
-72 39 -1 0 -30 -17 -63 -36z m75 -552 c0 -5 14 -12 30 -16 17 -4 30 -11 30
-16 0 -5 5 -9 11 -9 6 0 41 -17 77 -39 37 -21 96 -54 132 -73 36 -20 88 -48
115 -63 28 -16 101 -57 164 -92 62 -34 116 -63 120 -63 3 0 6 -174 5 -387 l0
-387 -50 -29 c-27 -16 -78 -45 -114 -65 -36 -19 -120 -66 -186 -104 -67 -37
-127 -68 -132 -68 -6 0 -12 -3 -14 -7 -1 -5 -21 -18 -43 -30 -22 -12 -66 -35
-98 -53 l-58 -31 -112 62 c-62 34 -130 72 -152 84 -55 30 -136 76 -295 164
l-135 76 0 384 1 385 214 119 c118 65 244 135 280 155 36 19 85 46 109 59 24
14 54 31 65 39 24 16 36 18 36 5z"/>
<path d="M7448 10779 c-55 -33 -117 -67 -218 -122 -41 -23 -104 -57 -140 -78
l-65 -36 0 -264 0 -263 45 -26 c25 -14 70 -39 100 -56 30 -16 57 -31 60 -34 3
-3 25 -16 50 -29 61 -32 127 -68 175 -95 38 -23 41 -23 75 -7 19 9 37 19 38
24 2 4 8 7 13 7 5 0 47 21 92 47 45 25 111 62 147 81 36 19 77 44 93 54 15 11
27 16 27 12 0 -4 8 0 18 9 16 15 18 39 17 276 0 296 10 263 -99 320 -34 18
-79 42 -101 55 -22 12 -65 35 -95 51 -30 17 -57 32 -60 35 -3 3 -32 19 -65 36
l-60 31 -47 -28z"/>
<path d="M13407 9846 c-205 -75 -302 -276 -242 -501 14 -55 85 -149 141 -190
123 -90 272 -102 413 -34 98 48 184 153 207 254 16 73 11 172 -14 235 -3 8 -6
17 -6 20 -4 24 -64 106 -101 138 -109 96 -266 127 -398 78z"/>
<path d="M1350 9845 c-25 -7 -47 -14 -50 -15 -3 -1 -8 -2 -12 -1 -5 0 -8 -2
-8 -7 0 -4 -12 -13 -28 -19 -33 -15 -97 -76 -128 -123 -71 -107 -82 -265 -27
-380 69 -146 200 -232 353 -231 72 0 85 2 148 25 47 17 91 45 135 85 34 31 96
131 102 163 3 13 8 37 11 53 24 108 -21 255 -104 343 -36 37 -140 101 -182
110 -45 11 -170 9 -210 -3z"/>
<path d="M2733 8379 c-45 -9 -73 -32 -82 -66 -9 -32 3 -105 49 -308 18 -82 54
-245 64 -299 3 -11 12 -52 21 -91 9 -38 19 -81 21 -94 6 -29 32 -148 40 -176
2 -11 6 -31 8 -45 2 -14 11 -55 19 -90 16 -64 45 -195 53 -235 2 -11 6 -32 10
-47 3 -15 5 -30 5 -33 0 -2 5 -19 10 -37 5 -18 12 -46 15 -63 3 -16 9 -46 14
-65 12 -45 22 -99 25 -126 1 -11 4 -24 7 -30 4 -5 9 -27 13 -49 4 -22 11 -53
15 -70 5 -16 11 -43 14 -60 3 -16 14 -73 26 -125 11 -52 23 -111 26 -130 3
-19 8 -38 11 -43 2 -4 7 -20 9 -35 5 -26 33 -155 55 -252 15 -66 48 -117 83
-132 22 -9 103 -13 293 -13 248 0 263 1 290 21 32 23 69 92 78 144 3 19 15 71
26 115 11 44 23 91 25 104 3 13 12 51 20 85 8 34 17 70 19 81 6 24 12 48 24
98 5 20 7 37 5 37 -3 0 0 8 5 18 5 9 16 49 24 87 9 39 27 120 42 180 14 61 28
118 30 128 5 23 66 278 107 447 16 69 31 132 33 140 2 8 8 35 14 60 7 25 14
56 16 70 16 83 22 87 36 23 4 -21 17 -81 29 -133 12 -52 23 -106 26 -120 2
-14 7 -31 10 -39 2 -8 7 -30 10 -50 3 -20 7 -43 10 -51 3 -8 8 -26 10 -39 3
-13 12 -51 20 -85 8 -34 17 -73 19 -88 2 -15 8 -44 14 -65 10 -38 39 -175 47
-223 3 -14 7 -32 10 -40 3 -8 8 -26 10 -40 3 -14 9 -41 14 -60 5 -19 12 -50
15 -67 3 -18 12 -63 21 -100 9 -38 18 -77 20 -88 2 -11 6 -29 8 -40 37 -162
48 -214 52 -235 17 -86 47 -193 61 -218 30 -51 55 -56 322 -57 271 -1 287 2
327 62 17 26 66 202 88 318 2 11 9 40 16 65 7 25 14 56 17 70 2 14 9 43 15 65
5 22 11 47 13 55 5 26 55 243 71 305 8 33 17 70 19 82 3 12 17 71 31 130 14
60 27 115 29 123 2 8 15 63 29 123 14 59 28 118 30 130 2 12 9 40 14 62 6 22
13 51 16 65 9 45 15 71 21 90 3 10 7 27 9 37 2 10 13 58 25 106 12 49 23 102
26 119 3 17 8 34 10 38 2 3 6 17 9 31 2 13 10 47 16 74 6 28 13 57 15 65 1 8
8 33 14 55 5 22 13 55 16 74 3 19 8 37 10 41 2 3 6 17 9 31 2 13 12 56 21 94
26 110 23 144 -14 177 -35 31 -22 30 -266 30 -279 1 -278 1 -321 -207 -1 -5
-9 -46 -18 -90 -22 -107 -25 -123 -31 -168 -4 -22 -10 -49 -15 -62 -5 -13 -7
-25 -4 -27 2 -3 0 -18 -5 -34 -9 -27 -13 -43 -27 -129 -2 -16 -9 -50 -15 -75
-5 -25 -11 -58 -14 -75 -6 -41 -15 -86 -21 -107 -3 -10 -7 -30 -10 -45 -2 -16
-7 -39 -10 -53 -3 -14 -8 -41 -10 -60 -3 -19 -11 -64 -19 -100 -8 -36 -17 -78
-20 -95 -7 -37 -13 -60 -15 -60 -1 0 -3 -13 -5 -30 -1 -16 -5 -43 -9 -60 -6
-29 -22 -109 -30 -152 -3 -11 -8 -42 -11 -67 -4 -26 -11 -49 -16 -52 -5 -3 -9
-2 -7 3 1 4 -4 33 -11 63 -7 30 -15 66 -17 80 -3 14 -14 59 -24 100 -10 41
-21 86 -24 100 -37 169 -48 219 -60 268 -8 31 -18 72 -21 91 -3 19 -8 37 -10
41 -2 4 -7 22 -10 41 -3 19 -8 41 -10 49 -2 8 -7 26 -9 40 -3 14 -15 63 -26
110 -11 47 -27 117 -35 155 -9 39 -18 79 -21 90 -3 11 -7 31 -10 44 -3 12 -12
53 -20 90 -23 98 -24 99 -29 124 -2 12 -7 34 -11 49 -3 15 -5 30 -5 33 0 2 -6
23 -14 45 -8 22 -14 44 -15 48 -1 22 -45 62 -82 74 -67 21 -491 17 -540 -6
-38 -18 -78 -79 -78 -118 0 -14 -3 -28 -7 -32 -4 -3 -8 -17 -10 -29 -2 -12
-10 -44 -18 -72 -8 -27 -17 -61 -19 -75 -3 -14 -5 -25 -6 -25 -1 0 -3 -7 -5
-15 -1 -8 -15 -60 -30 -115 -15 -55 -29 -108 -31 -118 -2 -10 -6 -27 -9 -37
-3 -10 -7 -27 -9 -37 -2 -10 -16 -63 -31 -118 -15 -55 -29 -111 -31 -125 -3
-14 -8 -34 -11 -45 -4 -11 -8 -24 -9 -30 -1 -5 -10 -39 -19 -75 -9 -36 -19
-73 -20 -83 -2 -9 -6 -21 -9 -25 -3 -5 -7 -19 -9 -33 -3 -13 -31 -123 -62
-244 -32 -121 -58 -228 -59 -237 0 -14 -16 -28 -16 -14 0 2 -5 28 -11 57 -5
30 -12 66 -14 81 -2 15 -8 51 -14 80 -6 29 -12 64 -15 78 -2 14 -11 63 -20
110 -8 47 -18 99 -21 115 -2 17 -7 41 -10 55 -3 14 -8 39 -10 55 -3 17 -10 57
-16 90 -6 33 -13 70 -15 83 -4 21 -8 41 -19 95 -8 39 -15 81 -21 117 -3 19 -7
42 -9 50 -3 8 -7 32 -11 54 -3 21 -8 48 -10 60 -9 49 -27 143 -30 164 -2 12
-6 32 -8 45 -2 12 -12 65 -21 117 -26 145 -55 188 -135 206 -41 9 -397 12
-437 3z"/>
<path d="M6470 8383 c-8 -2 -22 -7 -30 -10 -8 -4 -17 -6 -20 -5 -3 0 -17 -15
-30 -35 -22 -31 -24 -46 -24 -124 1 -96 12 -124 61 -156 25 -17 74 -18 678
-19 357 -1 657 -2 666 -3 8 -1 25 -10 36 -21 25 -23 24 -72 -3 -101 -10 -11
-13 -19 -8 -19 5 0 -2 -10 -14 -22 -20 -20 -49 -58 -120 -157 -9 -13 -23 -29
-29 -36 -7 -8 -13 -16 -13 -18 0 -4 -42 -61 -240 -327 -10 -14 -32 -43 -48
-65 -16 -22 -207 -279 -423 -572 -217 -292 -401 -542 -409 -554 -8 -12 -27
-36 -41 -53 -57 -69 -82 -152 -82 -268 0 -57 5 -73 26 -101 14 -18 40 -37 58
-43 22 -6 454 -10 1199 -9 1091 1 1167 2 1201 18 47 23 61 55 65 143 4 94 -9
134 -54 165 l-36 24 -645 1 c-355 1 -664 3 -686 5 -51 5 -80 37 -71 80 3 17
11 36 18 44 7 8 24 30 38 49 48 69 170 231 185 247 8 9 15 21 15 27 0 7 3 12
8 12 4 0 21 21 37 45 17 25 33 45 38 45 4 0 7 4 7 10 0 5 24 41 53 79 28 37
59 78 67 91 8 12 20 28 25 34 6 6 49 63 95 126 47 63 88 120 92 125 5 6 22 28
38 50 16 22 33 45 38 50 31 40 613 826 628 850 39 57 56 118 59 206 3 106 -12
148 -63 176 -37 21 -47 21 -1182 21 -630 0 -1152 -2 -1160 -5z"/>
<path d="M9397 8376 c-41 -15 -60 -35 -76 -77 -6 -17 -9 -510 -9 -1277 0
-1379 -4 -1288 61 -1336 26 -19 41 -20 300 -20 307 0 320 3 352 71 18 36 19
88 19 905 0 477 1 866 3 864 3 -2 11 -28 19 -57 8 -30 16 -58 18 -64 2 -9 27
-92 31 -105 1 -3 4 -12 7 -20 3 -8 12 -37 19 -65 6 -27 15 -54 18 -60 3 -5 6
-16 7 -23 1 -6 35 -121 74 -255 40 -133 73 -246 75 -252 1 -5 5 -17 8 -25 3
-8 15 -49 27 -90 12 -41 30 -104 41 -140 11 -36 22 -75 25 -88 2 -13 11 -42
18 -65 31 -93 60 -192 57 -201 -1 -4 2 -13 7 -20 8 -9 24 -64 26 -88 1 -3 4
-10 9 -14 4 -4 7 -16 7 -26 0 -11 11 -43 25 -73 38 -79 61 -86 293 -85 201 2
222 6 261 56 17 22 32 59 47 119 1 6 14 51 29 100 15 50 28 97 30 105 2 8 18
62 35 120 17 58 33 112 35 120 2 8 27 94 55 190 28 96 53 182 55 190 2 8 33
119 70 245 37 127 68 237 70 245 16 63 68 236 74 242 3 4 6 -370 6 -830 1
-787 2 -839 18 -864 41 -61 47 -62 337 -63 235 -1 269 1 302 17 78 38 72 -68
72 1343 0 1377 4 1294 -57 1339 -27 20 -41 21 -395 24 -202 2 -387 0 -411 -3
-65 -10 -102 -51 -130 -145 -13 -41 -28 -91 -33 -110 -6 -19 -10 -36 -9 -38 0
-1 -5 -18 -13 -37 -8 -19 -13 -35 -11 -35 3 0 0 -12 -6 -27 -6 -16 -12 -36
-15 -47 -2 -10 -11 -44 -20 -75 -10 -31 -18 -60 -20 -66 -1 -5 -27 -98 -58
-205 -32 -107 -59 -202 -61 -210 -2 -8 -17 -64 -35 -125 -36 -125 -34 -120
-44 -160 -4 -16 -10 -37 -13 -45 -3 -8 -7 -19 -9 -25 -22 -87 -152 -537 -156
-540 -2 -2 -16 37 -32 88 -15 51 -29 97 -30 102 -2 6 -4 13 -5 17 -1 4 -9 27
-17 50 -9 24 -17 50 -19 58 -2 8 -19 65 -38 125 -20 61 -59 184 -87 275 -28
91 -57 183 -65 205 -14 42 -69 216 -70 225 -1 7 -25 82 -32 100 -3 8 -7 20 -8
25 -2 6 -13 44 -26 85 -13 41 -24 77 -24 80 -1 3 -4 12 -7 20 -4 8 -29 88 -57
178 -67 214 -78 234 -142 252 -17 5 -196 9 -397 9 -286 0 -375 -3 -405 -13z"/>
<path d="M1139 7896 c-2 -2 -28 -7 -56 -10 -73 -7 -173 -58 -223 -113 -23 -24
-56 -75 -73 -111 -28 -60 -31 -77 -32 -162 0 -86 3 -101 31 -161 69 -146 192
-228 351 -234 153 -5 295 80 363 220 44 90 54 166 33 259 -27 118 -102 216
-201 261 -31 15 -64 30 -72 34 -8 4 -35 8 -60 10 -25 2 -48 5 -51 7 -3 2 -8 2
-10 0z"/>
<path d="M13780 7883 c-114 -23 -151 -43 -226 -122 -54 -57 -104 -193 -98
-266 9 -130 60 -233 150 -305 31 -25 94 -62 94 -56 0 4 14 -1 30 -9 17 -9 63
-17 102 -19 164 -8 302 73 375 221 34 68 38 85 39 161 2 86 -15 161 -42 193
-8 8 -14 20 -14 25 0 18 -72 95 -113 121 -50 32 -110 53 -167 59 -25 3 -49 7
-55 8 -5 1 -39 -3 -75 -11z"/>
<path d="M13495 5929 c-105 -17 -161 -44 -229 -112 -79 -78 -117 -171 -117
-284 0 -151 86 -285 227 -354 64 -32 75 -34 164 -33 102 1 183 24 231 65 61
52 89 82 112 121 118 202 40 461 -168 559 -52 25 -77 32 -154 43 -9 1 -38 -1
-66 -5z"/>
<path d="M1369 5915 c-193 -50 -321 -225 -303 -415 3 -36 7 -72 8 -80 1 -9 14
-38 29 -64 15 -27 27 -50 27 -53 0 -2 19 -24 42 -49 51 -54 163 -112 235 -120
274 -32 495 210 440 481 -8 36 -60 142 -85 171 -89 105 -263 162 -393 129z"/>
<path d="M5576 5120 c-1 -3 -3 -20 -4 -37 -3 -37 -16 -34 143 -37 l80 -1 0
-290 1 -290 44 -1 45 -1 -1 281 c0 154 1 286 3 292 3 7 36 12 91 12 144 0 134
-3 130 39 l-3 37 -263 1 c-145 0 -265 -2 -266 -5z"/>
<path d="M6370 5090 c-7 -19 -18 -48 -25 -65 -15 -33 -135 -354 -139 -370 -2
-5 -6 -17 -9 -25 -12 -29 -28 -75 -28 -78 1 -1 -5 -15 -14 -32 -24 -47 -20
-58 25 -58 45 -1 46 0 80 103 13 39 27 74 32 79 11 13 258 14 266 1 4 -5 21
-48 37 -95 l30 -85 54 -2 c30 -1 50 2 45 5 -5 4 -17 30 -26 57 -14 44 -72 205
-114 320 -8 22 -17 47 -19 55 -2 8 -4 16 -5 18 -2 1 -3 5 -5 10 -1 4 -7 20
-13 35 -7 16 -12 34 -12 41 0 7 -3 16 -7 19 -4 4 -14 28 -23 54 l-16 47 -51 1
c-49 0 -51 -1 -63 -35z m109 -210 c22 -69 41 -130 41 -136 0 -7 -34 -11 -100
-10 -85 1 -99 3 -94 16 3 8 9 24 12 35 2 11 8 25 12 30 4 6 22 54 40 108 18
54 37 94 40 90 4 -5 26 -64 49 -133z"/>
<path d="M6808 5119 c-9 -6 -15 -463 -9 -636 1 -19 6 -21 44 -20 l42 2 0 267
c0 146 3 264 7 262 3 -2 46 -123 94 -267 l88 -264 35 -1 c20 -1 41 2 47 6 8 6
60 133 62 152 0 3 6 19 12 35 6 17 12 38 13 48 1 9 5 17 9 17 3 0 7 8 7 18 0
19 83 263 88 258 2 -1 3 -123 4 -269 l2 -267 42 2 c40 1 43 3 41 29 -1 16 3
31 8 33 8 3 8 5 0 5 -5 1 -9 15 -7 34 2 17 4 37 4 42 0 6 -2 25 -4 43 -2 17 1
32 6 32 4 0 5 6 0 12 -10 17 -10 49 -1 70 5 9 4 19 0 22 -10 6 -9 36 1 53 4 6
4 14 -1 17 -9 5 -8 59 2 75 4 5 2 12 -2 15 -10 6 -9 36 1 53 4 6 4 14 -1 17
-4 3 -7 28 -5 55 3 37 0 51 -9 52 -73 5 -110 3 -117 -6 -8 -10 -41 -96 -45
-118 -2 -6 -6 -19 -9 -27 -7 -18 -77 -221 -81 -235 -19 -68 -49 -155 -55 -155
-6 0 -24 51 -132 370 -29 85 -56 159 -60 164 -10 11 -105 15 -121 5z"/>
<path d="M7586 5121 c-2 -3 -3 -152 -2 -331 l1 -325 43 -2 c23 -1 42 2 43 5 1
4 2 152 3 330 0 208 -3 322 -9 323 -56 5 -76 5 -79 0z"/>
<path d="M7838 5110 c-2 -8 -3 -157 -3 -330 l1 -315 44 0 45 0 1 143 c0 92 4
146 11 150 6 4 79 6 162 6 105 -1 151 2 152 10 0 6 2 22 3 34 2 13 -3 26 -10
29 -7 3 -82 5 -165 6 l-153 2 -1 90 c-1 50 0 95 2 101 3 7 62 11 176 12 95 0
177 1 183 1 9 1 12 42 5 71 0 3 -102 5 -225 5 -192 0 -225 -2 -228 -15z"/>
<path d="M8389 5115 c-3 -33 -4 -632 -1 -642 3 -8 60 -11 213 -11 205 1 209 2
210 22 0 12 2 29 4 39 3 14 -4 17 -33 17 -21 1 -98 2 -172 3 l-135 2 -1 280
c-1 154 -2 285 -3 290 0 6 -19 10 -41 10 -22 0 -40 -4 -41 -10z"/>
<path d="M8904 4875 c2 -230 3 -254 23 -295 11 -25 31 -55 45 -68 86 -78 292
-76 383 5 12 10 32 41 45 68 24 49 25 57 27 295 l2 245 -44 0 c-25 0 -45 -2
-46 -5 0 -3 -2 -111 -3 -240 -2 -204 -5 -240 -21 -271 -33 -67 -127 -99 -213
-73 -45 13 -60 26 -89 79 -15 26 -17 65 -18 263 -1 128 -5 235 -9 239 -3 4
-24 7 -45 7 l-38 1 1 -250z"/>
<path d="M12571 4158 c-136 -23 -262 -133 -306 -268 -72 -217 51 -443 274
-505 118 -34 256 -4 351 75 98 82 143 176 144 305 1 142 -66 265 -185 341 -75
47 -185 68 -278 52z"/>
<path d="M2292 4149 c-72 -13 -154 -57 -209 -112 -29 -28 -53 -57 -53 -64 0
-7 -4 -13 -10 -13 -5 0 -10 -4 -10 -9 0 -5 -5 -22 -11 -38 -6 -15 -10 -29 -11
-30 0 -1 -5 -22 -12 -45 -7 -24 -11 -52 -10 -63 1 -11 3 -44 5 -72 2 -29 7
-53 12 -53 4 0 7 -7 7 -15 0 -39 96 -174 140 -196 14 -7 32 -19 40 -26 47 -37
200 -59 291 -40 99 20 232 135 269 234 114 296 -131 598 -438 542z"/>
<path d="M3720 2748 c-71 -8 -164 -50 -218 -98 -28 -26 -100 -127 -99 -140 0
-3 -6 -23 -13 -45 -23 -69 -17 -180 14 -255 112 -276 477 -338 665 -113 42 50
44 53 60 88 90 202 8 435 -185 527 -76 36 -139 46 -224 36z"/>
<path d="M11132 2744 c-111 -29 -212 -116 -259 -222 -32 -72 -40 -195 -17
-274 49 -168 203 -281 384 -280 203 0 363 144 387 348 11 86 2 139 -35 219
-44 93 -127 165 -237 205 -48 18 -165 20 -223 4z"/>
<path d="M5517 1854 c-1 -1 -18 -5 -39 -8 -197 -31 -345 -214 -332 -412 2 -27
6 -60 8 -74 8 -36 62 -141 89 -170 122 -136 343 -169 501 -76 41 24 116 90
116 102 0 3 9 19 20 34 11 16 27 48 36 72 17 48 26 195 13 204 -5 3 -6 10 -3
16 6 10 -1 28 -39 102 -59 115 -173 192 -304 206 -35 3 -65 5 -66 4z"/>
<path d="M9417 1853 c-1 -1 -14 -4 -27 -7 -87 -17 -150 -53 -214 -118 -104
-108 -134 -285 -72 -428 79 -183 284 -279 474 -221 38 11 80 30 94 41 15 11
29 20 33 20 14 0 88 88 111 132 13 26 30 74 37 105 16 70 15 108 -6 198 -10
42 -67 132 -108 170 -51 48 -171 110 -194 101 -7 -2 -16 -2 -19 1 -6 6 -104
11 -109 6z"/>
<path d="M7460 1542 c-146 -20 -277 -124 -328 -258 -23 -61 -28 -171 -11 -240
23 -92 109 -201 193 -243 90 -44 115 -50 204 -47 74 2 96 7 152 34 84 41 152
108 193 191 30 61 32 73 32 166 0 94 -2 105 -34 170 -52 105 -128 174 -233
209 -48 16 -125 24 -168 18z"/>
</g>
</svg>
